<svg xmlns="http://www.w3.org/2000/svg" version="1.1" xmlns:xlink="http://www.w3.org/1999/xlink" width="1500" height="85" viewBox="0 0 1500 85"><svg xml:space="preserve" width="1500" height="85" data-version="2" data-id="lg_fUd4slIR5dLvfcJhbK" viewBox="0 0 298 85" x="0" y="0"><rect width="100%" height="100%" fill="transparent"></rect><path fill="#fff" d="M52.499 60.399h-15.01l-24.22-42.12h-.34q.15 2.63.26 5.29.12 2.67.23 5.32.12 2.64.23 5.31v26.2H3.099V4.719h14.89l24.19 41.71h.26q-.07-2.59-.19-5.15-.11-2.55-.21-5.1-.09-2.55-.17-5.1V4.719h10.63Z"></path><rect width="49.4" height="55.68" x="-24.7" y="-27.84" fill="none" rx="0" ry="0" transform="translate(28.3 33.06)"></rect><path fill="#fff" d="M77.209 17.819v42.58h-11.61v-42.58Zm-5.78-16.68q2.59 0 4.45 1.2 1.87 1.2 1.87 4.48 0 3.23-1.87 4.47-1.86 1.24-4.45 1.24-2.63 0-4.48-1.24-1.85-1.24-1.85-4.47 0-3.28 1.85-4.48 1.85-1.2 4.48-1.2"></path><rect width="12.65" height="59.26" x="-6.33" y="-29.63" fill="none" rx="0" ry="0" transform="translate(71.92 31.27)"></rect><path fill="#fff" d="M101.019 1.139v26.51q0 2.4-.19 4.8t-.42 4.8h.15q1.18-1.68 2.42-3.32 1.24-1.63 2.65-3.16l11.92-12.95h13.1l-16.91 18.47 17.94 24.11h-13.41l-12.26-17.25-4.99 4v13.25h-11.62V1.139Z"></path><rect width="42.28" height="59.26" x="-21.14" y="-29.63" fill="none" rx="0" ry="0" transform="translate(111.04 31.27)"></rect><path fill="#fff" d="M176.469 39.039q0 5.33-1.43 9.44-1.43 4.12-4.15 6.95-2.73 2.84-6.55 4.29-3.83 1.44-8.63 1.44-4.49 0-8.25-1.44-3.75-1.45-6.51-4.29-2.76-2.83-4.26-6.95-1.51-4.11-1.51-9.44 0-7.09 2.52-12 2.51-4.91 7.16-7.47 4.64-2.55 11.08-2.55 5.98 0 10.61 2.55 4.62 2.56 7.27 7.47 2.65 4.91 2.65 12m-29.44 0q0 4.19.91 7.04.91 2.86 2.86 4.31 1.94 1.44 5.06 1.44 3.09 0 5.01-1.44 1.92-1.45 2.82-4.31.89-2.85.89-7.04 0-4.23-.89-7.03-.9-2.8-2.84-4.21-1.94-1.41-5.06-1.41-4.61 0-6.69 3.16-2.07 3.16-2.07 9.49"></path><rect width="41.29" height="44.14" x="-20.64" y="-22.07" fill="none" rx="0" ry="0" transform="translate(156.32 39.59)"></rect><path fill="#fff" d="M215.769 47.759q0 4.34-2.04 7.33-2.03 2.99-6.07 4.53-4.04 1.54-10.06 1.54-4.45 0-7.63-.57-3.18-.57-6.42-1.9v-9.6q3.47 1.56 7.45 2.57 3.98 1.01 6.99 1.01 3.38 0 4.85-1.01 1.47-1.01 1.47-2.64 0-1.07-.59-1.93-.59-.86-2.54-1.94-1.94-1.09-6.09-2.84-4-1.67-6.57-3.39-2.57-1.71-3.81-4.05-1.24-2.35-1.24-5.96 0-5.91 4.59-8.9t12.29-2.99q3.96 0 7.56.8 3.6.8 7.4 2.55l-3.5 8.38q-3.16-1.37-5.96-2.24-2.8-.88-5.69-.88-2.56 0-3.85.69-1.3.68-1.3 2.09 0 1.03.67 1.83t2.59 1.77q1.92.97 5.66 2.49 3.61 1.49 6.28 3.11 2.67 1.62 4.11 4 1.45 2.38 1.45 6.15"></path><rect width="32.3" height="44.14" x="-16.15" y="-22.07" fill="none" rx="0" ry="0" transform="translate(200.12 39.59)"></rect><path fill="#fff" d="M242.769 51.909q1.91 0 3.72-.38 1.81-.38 3.6-.95v8.64q-1.87.84-4.63 1.39-2.76.55-6.04.55-3.81 0-6.83-1.23-3.03-1.24-4.76-4.31-1.74-3.06-1.74-8.55v-20.53h-5.56v-4.91l6.4-3.88 3.35-8.99h7.43v9.06h11.92v8.72h-11.92v20.53q0 2.44 1.39 3.64 1.39 1.2 3.67 1.2"></path><rect width="29.56" height="52.4" x="-14.78" y="-26.2" fill="none" rx="0" ry="0" transform="translate(235.8 35.46)"></rect><path fill="#fff" d="M276.139 16.949q8.57 0 13.14 3.73t4.57 11.35v28.37h-8.11l-2.25-5.79h-.31q-1.82 2.29-3.73 3.74-1.9 1.44-4.38 2.13-2.47.68-6.02.68-3.77 0-6.76-1.44-2.99-1.45-4.7-4.44t-1.71-7.6q0-6.78 4.76-10 4.76-3.21 14.28-3.56l7.39-.22v-1.87q0-3.35-1.75-4.91-1.76-1.57-4.88-1.57-3.08 0-6.06.88-2.97.88-5.94 2.21l-3.84-7.85q3.39-1.79 7.59-2.81 4.21-1.03 8.71-1.03m6.17 23.72-4.5.16q-5.63.15-7.82 2.02-2.19 1.86-2.19 4.91 0 2.66 1.56 3.79 1.56 1.12 4.07 1.12 3.74 0 6.31-2.21 2.57-2.21 2.57-6.28Z"></path><rect width="37.97" height="44.21" x="-18.98" y="-22.11" fill="none" rx="0" ry="0" transform="translate(275.36 39.55)"></rect><path fill="#fff" stroke="#fff" stroke-width="5" d="m8.558 79.969 283.844 1.392"></path></svg></svg>